<?xml version="1.0" encoding="UTF-8"?>
<svg version="1.1" viewBox="0 0 2400 800" width="2400" height="800" xmlns="http://www.w3.org/2000/svg">
<path transform="translate(211,200)" d="m0 0h400v400h-400z" fill="#fff"/>
<path transform="translate(1425,355)" d="m0 0 8 1 5 3 4 5 10 27 13 36 4 10v4l2-1 11-31 14-38 6-12 8-4 8 1 5 3 4 5 11 30 4 12 4 10 9 25 5-12 21-58 5-10 5-4 5-2 7 1 5 3 3 3 1 8-4 13-16 41-18 46-5 8-6 4-11 1-7-3-6-5-6-14-16-43-4-10v-3h-2l-3 9-19 52-5 10-7 6-11 1-7-2-5-5-4-6-8-21-22-56-7-18v-11l4-6z" fill="#fff"/>
<path transform="translate(1917,301)" d="m0 0 8 1 6 3 6 7 8 17 15 33 19 42 15 33 12 27 1 9-3 6-4 3-4 1h-7l-7-3-6-7-11-25-3-7-86-1-1 5-12 28-5 7-8 3-10-1-6-5-1-3v-9l11-25 13-29 11-24 20-45 7-15 8-17 8-7zm2 40-6 12-15 36-6 15-4 9 1 1h61l-1-6-20-47-8-19z" fill="#fff"/>
<path transform="translate(1148,355)" d="m0 0 9 1 6 3 3 4 3 9 9-9 9-5 11-3h17l12 3 12 7 9 9 6 10 5 13 2 11v21l-3 15-5 12-6 9-5 6-12 8-8 3-6 1h-18l-8-2-12-6-7-6-2-3-1 50-4 8-5 3-10 1-7-2-5-6-2-6v-145l4-9 4-3zm42 25-10 5-8 9-4 12v27l4 11 6 8 8 5 4 1h16l7-3 8-7 5-9 2-8v-24l-3-10-5-8-7-6-7-3z" fill="#fff"/>
<path transform="translate(700,355)" d="m0 0 9 1 6 4 3 5 2 7 8-8 9-5 12-4h18l11 3 12 7 6 5 9 13 4 10 3 12v27l-4 15-5 12-8 10-10 8-12 5-6 1h-18l-13-4-9-6-7-7-1 51-3 6-5 4-11 1-6-2-5-4-2-6v-149l3-7 4-3zm42 25-9 4-8 7-4 8-2 8v24l3 11 6 9 9 6 4 1h16l8-3 6-5 5-8 3-9v-27l-4-12-7-8-8-5-3-1z" fill="#fff"/>
<path transform="translate(1328,355)" d="m0 0h22l15 4 10 5 8 8 6 12 3 15v71l-4 9-4 3-10 1-7-3-4-4-3-9-7 8-10 6-8 2h-18l-8-2-9-4-6-4-8-8-5-11-1-4v-13l4-11 7-8 13-6 12-3 23-2h22l-2-15-3-6-6-4-3-1h-22l-14 4-11 4-7-1-5-6v-10l4-6 5-3 15-5zm31 71-28 1-10 2-6 3-3 5v12l6 8 5 3 13 1 9-2 8-6 4-5 4-11v-10z" fill="#fff"/>
<path transform="translate(882,355)" d="m0 0h20l16 5 10 6 9 9 8 16 3 11v20l-5 4-3 1h-79l4 13 5 8 6 5 11 4h22l12-3 11-5h9l5 5 1 2v7l-3 6-10 7-14 5-12 2h-22l-11-2-11-4-9-5-10-9-7-9-5-11-3-14v-20l4-15 7-14 10-11 10-7 13-5zm6 22-12 4-7 6-6 11-2 9 2 1h58v-8l-4-11-5-6-7-4-7-2z" fill="#fff"/>
<path transform="translate(991,319)" d="m0 0h9l8 4 4 8 1 26 31 1 5 4 2 5-1 8-5 6-3 1h-30l1 60 3 7 4 4 10 3h7l4-1h9l3 3 1 2v12l-3 6-8 4-7 1h-18l-10-2-12-6-6-5-6-9-3-9-2-9v-61h-17l-6-4-2-4v-9l5-6 2-1h18v-27l4-8z" fill="#fff"/>
<path transform="translate(1658,319)" d="m0 0h8l7 3 5 8 1 27 31 1 6 5 1 3v8l-4 6-4 2h-31l1 59 4 9 5 4 8 2h7l5-1h8l4 4v14l-4 6-7 3-6 1h-19l-10-2-12-6-6-5-6-9-3-9-2-12v-56l1-2h-18l-6-4-2-6 1-8 4-5 2-1 18-1v-23l3-9 6-5z" fill="#fff"/>
<path transform="translate(2128,319)" d="m0 0h8l7 3 4 4 2 8v24h32l5 5 1 2v10l-4 5-4 2h-30l1 61 4 8 8 4 11 1 5-1h9l3 3 1 5v7l-3 7-5 4-10 2h-18l-10-2-9-4-8-6-6-8-4-10-2-10v-61h-17l-6-4-2-3v-11l5-5 2-1 17-1 1-26 4-8z" fill="#fff"/>
<path transform="translate(2045,301)" d="m0 0 9 1 6 4 3 4 1 3v158l-4 8-5 3-10 1-7-2-6-7-1-4v-156l3-7 5-4z" fill="#fff"/>
<path transform="translate(1747,355)" d="m0 0 9 1 5 3 4 5 1 10 10-10 9-5 14-4h10l5 4 2 4v11l-4 6-6 3-14 2-10 3-7 4-5 8-2 8-1 62-3 7-4 4-6 2-11-1-5-3-3-5-1-4v-102l3-7 4-4z" fill="#fff"/>
</svg>
