<?xml version="1.0" encoding="UTF-8"?>
<svg version="1.1" viewBox="0 0 2048 682" width="2048" height="682" xmlns="http://www.w3.org/2000/svg">
<path transform="translate(375,179)" d="m0 0h8l11 6 19 12 24 15 21 13 19 12 24 15 10 7 3 4v145l-4 16-5 12-8 13-10 13-12 12-13 9-12 7-21 7-18 3-10 1h-23l-18-2-15-5-11-7-9-8-7-10-6-13v-3h-20l-12-2-10-4-11-8-8-11-5-13-2-13v-136l3-6 10-7 22-14 60-38 19-12 13-8z" fill="#381D42"/>
<path transform="translate(375,179)" d="m0 0h8l11 6 19 12 24 15 21 13 19 12 24 15 10 7 3 4v145l-4 16-5 12-8 13-10 13-12 12-13 9-12 7-21 7-18 3-10 1h-23l-18-2-15-5-11-7-9-8-7-10-6-13v-3h-20l-12-2-10-4-11-8-8-11-5-13-2-13v-136l3-6 10-7 22-14 60-38 19-12 13-8zm2 17-14 8-22 14-19 12-24 15-22 14-14 9-2 3v135l4 13 7 9 8 6 9 3h20l1-11v-36l2-13 5-13 10-14 9-8 13-8 14-5 5-1h23l15 4 14 7 11 9 9 11 6 13 3 12v16l-4 13-7 12-7 7-14 9-15 6-17 3h-37l-3-3v-7l3-3 34-1 17-3 12-5 9-6 8-8 5-9 2-9-1-13-4-12-7-10-8-8-10-6-12-4-7-1h-13l-16 4-12 7-9 9-7 12-3 10-1 7v46l3 15 6 12 7 8 11 7 10 4 11 2h35l18-3 18-6 14-8 10-8 11-11 9-13 6-12 4-13 2-21v-116l-2-5-9-7-15-9-19-12-48-30-19-12-6-3z" fill="#FDFDFD"/>
<path transform="translate(372,342)" d="m0 0h13l14 3 12 6 10 9 7 9 4 10 2 10v7l-3 11-6 9-8 8-16 8-12 3-8 1-34 1-7 6-12 9-2-4-2-11v-46l3-14 6-12 9-10 10-7 10-4z" fill="#C48256"/>
<path transform="translate(1214,289)" d="m0 0h8l5 3 5 8 19 53 3 8 2-2 12-33 11-30 4-5 4-2h8l6 4 5 12 13 36 7 19v3h2l3-10 19-53 5-8 5-3h7l5 3 3 5-1 9-12 31-19 49-4 6-5 4-3 1h-8l-7-4-5-8-20-53v-2h-2l-3 10-17 46-4 7-8 4h-7l-8-4-4-6-18-46-14-36v-9l5-6z" fill="#FEFEFE"/>
<path transform="translate(1634,243)" d="m0 0h8l6 3 6 8 16 35 13 29 19 42 10 23v7l-5 6-3 1h-8l-5-3-5-6-11-26-1-1-73-1-3 9-8 19-7 8-3 1h-7l-6-3-3-5 1-9 17-37 13-29 14-31 15-33 7-6zm3 32-17 40-9 22 3 2h45l6-1-8-20-17-40z" fill="#C48256"/>
<path transform="translate(596,289)" d="m0 0h8l6 4 3 6 1 5 6-7 8-5 10-3h18l12 4 8 6 8 9 5 10 3 12 1 8v10l-3 17-8 16-9 9-13 6-4 1h-18l-11-4-6-4-7-7-1 45-4 6-4 2h-10l-5-3-3-4-1-4v-124l3-7 4-3zm37 20-9 4-7 8-3 8-1 4v19l3 11 6 8 8 5 4 1h11l9-4 8-9 3-9v-25l-4-10-5-6-7-4-4-1z" fill="#FEFEFE"/>
<path transform="translate(978,289)" d="m0 0h9l6 4 3 7 1 4 6-7 8-5 10-3h18l12 4 9 7 7 8 5 10 3 12v25l-3 13-7 13-8 8-14 7-4 1h-18l-11-4-6-4-7-7-1 45-4 6-4 2h-10l-5-3-3-4-1-4v-124l3-7zm38 20-9 4-7 8-3 7-1 5v19l3 11 6 8 8 5 4 1h11l9-4 7-8 4-10v-24l-4-11-4-5-8-5-4-1z" fill="#FEFEFE"/>
<path transform="translate(1131,289)" d="m0 0h23l12 3 9 6 7 8 4 11 1 6v65l-4 7-5 2h-7l-5-3-4-6v-6h-2l-2 4-5 5-9 5-4 1h-18l-11-4-6-4-8-8-4-10v-14l4-10 7-6 9-4 14-3 11-1h23l-1-14-4-6-7-3h-18l-12 3-10 4-7-2-3-5 1-9 6-5 14-5zm5 60-9 2-6 4-2 4v9l4 6 6 4 3 1h10l8-3 7-6 4-8 1-12-1-1z" fill="#FEFEFE"/>
<path transform="translate(751,289)" d="m0 0h20l13 4 10 7 7 8 5 11 3 13v12l-3 4-3 1h-68l3 12 5 8 6 4 10 3h15l15-4 5-3h9l4 4 1 6-2 5-7 6-13 5-10 2h-22l-15-4-12-7-8-8-6-11-3-9-1-5v-20l3-12 5-10 9-10 8-6 12-5zm4 18-9 4-7 7-4 10v5h52l-2-11-6-10-10-5z" fill="#FEFEFE"/>
<path transform="translate(1814,258)" d="m0 0h11l5 3 3 7v23h27l5 4 1 2v8l-5 5-2 1h-26l1 51 3 7 5 4 3 1h21l3 3v11l-3 5-2 2-9 2h-18l-13-4-9-7-6-10-2-6-1-7v-52h-14l-5-3-3-5 1-8 5-4h16v-24l3-5z" fill="#FEFEFE"/>
<path transform="translate(844,258)" d="m0 0h11l7 6 1 3v24h27l5 4 1 2v7l-3 5-4 2h-26l1 51 3 7 5 4 3 1h21l3 4v10l-3 5-2 2-9 2h-18l-13-4-8-6-6-8-3-9-1-6v-53h-14l-5-3-2-2-1-7 3-6 3-2h16v-24l3-5z" fill="#FEFEFE"/>
<path transform="translate(1413,258)" d="m0 0h10l6 4 2 4 1 6v19h27l5 5 1 7-3 5-5 3h-25l1 53 4 7 7 3h21l2 2 1 10-3 7-6 3-5 1h-19l-12-4-6-4-7-8-4-9-1-5v-56h-15l-6-4-1-2v-8l4-5 2-1 15-1 1-24 3-5z" fill="#FEFEFE"/>
<path transform="translate(1743,243)" d="m0 0h9l6 4 3 6v134l-3 6-4 3-3 1h-8l-5-3-3-3-2-7v-116l1-17 4-6z" fill="#C48256"/>
<path transform="translate(1539,288)" d="m0 0 5 1 4 4 1 2v10l-4 5-7 2-12 2-9 4-5 5-3 7-1 5-1 54-3 5-7 3h-7l-6-3-3-4-1-3v-88l2-5 4-4 3-1h8l6 3 3 5 1 9 6-8 7-5 13-4z" fill="#FEFEFE"/>
<path transform="translate(377,259)" d="m0 0 8 1 8 5 4 5 3 7v13l-3 8-6 7-7 3h-11l-8-4-6-8-1-3v-16l5-10 7-6z" fill="#FEFEFE"/>
<path transform="translate(318,278)" d="m0 0 9 1 7 4 7 8 3 7v13l-4 8-8 6-3 1h-9l-9-4-7-8-3-7v-12l5-10 6-5z" fill="#FEFEFE"/>
<path transform="translate(435,278)" d="m0 0 9 1 6 4 5 6 2 5v14l-4 8-4 5-10 5h-10l-8-4-6-9-1-10 3-10 4-6 8-7z" fill="#FEFEFE"/>
</svg>
