<?xml version="1.0" encoding="UTF-8"?>
<svg version="1.1" viewBox="0 0 2048 682" width="2400" height="800" xmlns="http://www.w3.org/2000/svg">
<path transform="translate(181,170)" d="m0 0h340v342h-340l-1-1v-340z" fill="#FEFEFE"/>
<path transform="translate(346,190)" d="m0 0h8l19 11 10 7 16 10 23 14 24 15 15 9 6 5 1 2v119l-3 22-7 18-9 16-11 13-8 8-10 7-17 9-8 3-15 3-15 1h-19l-15-1-13-4-8-5-10-10-6-12-4-11-2-1-19-2-11-3-13-10-7-11-4-11-1-57v-79l2-5 8-6 26-16 11-7 15-9 21-13 17-11 10-6z" fill="#D0C1D8"/>
<path transform="translate(346,190)" d="m0 0h8l19 11 10 7 16 10 23 14 24 15 15 9 6 5 1 2v119l-3 22-7 18-9 16-11 13-8 8-10 7-17 9-8 3-15 3-15 1h-19l-15-1-13-4-8-5-10-10-6-12-4-11-2-1-19-2-11-3-13-10-7-11-4-11-1-57v-79l2-5 8-6 26-16 11-7 15-9 21-13 17-11 10-6zm3 16-17 10-10 7-14 8-9 6-10 6-11 7-10 6-17 11-4 4v126l6 14 9 8 10 4h14l3-5 1-46 5-13 8-10 9-8 8-5 15-5 19-1 12 1 16 6 10 7 10 10 6 12 3 11v16l-4 13-6 9-9 10-10 6-8 4-8 3-6 1h-35l-5-5 1-8 4-3 25-1 18-3 14-8 8-9 3-5 1-6v-13l-2-8-5-9-11-9-6-3-9-3h-21l-14 5-9 7-8 8-4 10-1 5v52l2 10 4 9 8 9 6 4 12 3h39l19-4 21-11 12-11 9-10 7-11 5-12 4-13 2-15v-109l-5-6-14-8-5-4-12-7-13-8-11-7-9-6-14-8-5-4-16-8z" fill="#351B41"/>
<path transform="translate(1637,257)" d="m0 0 9 2 5 5 8 16 18 39 13 29 17 37 5 12v7l-3 5-4 2h-10l-6-4-8-16-6-14v-2h-74l-2 6-10 23-4 5-4 2h-9l-5-3-2-2-1-7 4-11 11-24 16-36 7-15 16-36 6-12 5-5 3-2zm0 33-11 25-15 36v2h54l-3-9-23-54z" fill="#F2943C"/>
<path transform="translate(1217,303)" d="m0 0 9 2 4 5 14 38 10 27 1 1 19-52 6-15 5-5 7-1 6 2 5 6 17 47 6 17v2h2l3-10 17-47 5-12 6-4h10l5 5 1 2v7l-10 26-16 41-7 18-4 5-6 3h-10l-6-4-4-5-16-43-5-13-1-1-7 18-15 40-4 5-5 3h-11l-6-4-5-8-16-41-15-39v-9l4-5z" fill="#371D43"/>
<path transform="translate(599,303)" d="m0 0 9 2 4 5 1 9h2l2-4 8-7 10-4 6-1h13l13 4 10 7 7 8 6 13 3 17v11l-3 16-5 12-8 10-11 7-8 3-15 1-10-2-10-5-7-6-3-3v45l-3 5-4 3-8 1-7-3-4-5-1-4v-122l3-9 5-3zm38 20-8 2-8 5-5 7-3 11v18l2 9 5 8 7 6 5 2h14l9-4 6-7 4-10v-25l-4-11-7-7-7-3z" fill="#391F45"/>
<path transform="translate(982,303)" d="m0 0 7 1 5 4 2 6v5h2l2-4 8-7 10-4 6-1h12l9 2 10 5 8 7 6 9 4 9 2 10v25l-3 12-6 12-6 7-11 7-8 3-15 1-10-2-10-5-7-6-3-3v45l-3 5-4 3-8 1-8-3-3-4-1-5v-123l3-8 5-3zm38 20-8 2-7 4-4 5-4 9-1 5v19l3 10 4 6 7 6 5 2h14l10-5 6-8 3-8v-25l-4-10-7-8-7-3z" fill="#391F45"/>
<path transform="translate(1134,303)" d="m0 0h17l10 2 10 4 8 7 6 11 2 10v65l-3 6-4 3h-10l-5-3-3-6-1-5-7 8-12 6-14 1-10-2-9-4-8-6-6-9-2-6v-14l4-9 5-5 10-5 12-3 10-1 27-1-1-13-3-6-6-3-4-1h-12l-14 3-10 4h-6l-5-5-1-7 3-6 10-5 15-4zm5 60-13 3-5 3-2 4v9l4 7 8 4h12l8-3 7-7 3-7 1-5v-7l-1-1z" fill="#371D43"/>
<path transform="translate(754,303)" d="m0 0h14l12 3 10 5 7 6 7 11 4 12 1 6v13l-5 4h-69l2 10 4 8 6 5 10 4h19l11-3 9-4h6l5 4 1 7-3 6-9 6-17 5-16 1-15-2-12-4-10-7-7-7-6-10-3-9-1-6v-19l3-12 6-12 8-9 11-7 11-4zm3 18-9 3-7 6-6 12v6h51l1-3-2-9-5-8-5-4-8-3z" fill="#371D43"/>
<path transform="translate(1818,272)" d="m0 0 10 2 4 5 1 3v23h26l5 3 2 3v8l-2 4-4 2-26 1v50l4 9 6 3 4 1h8l9-1 4 4v11l-3 5-8 3-15 1-12-2-12-6-8-9-4-11-1-7v-52h-15l-5-3-2-5 1-7 4-4 3-1h14v-23l3-6 4-3z" fill="#361C42"/>
<path transform="translate(848,272)" d="m0 0 10 2 4 5 1 3v23h26l6 4 1 2v8l-4 5-2 1-26 1v50l3 7 4 4 7 2h8l9-1 4 4v11l-3 5-8 3-15 1-12-2-12-6-7-7-5-13-1-6v-53h-16l-5-5-1-6 2-5 3-3 3-1h14v-23l3-6 4-3z" fill="#361C42"/>
<path transform="translate(1417,272)" d="m0 0 9 2 4 4 2 7v20h25l5 2 3 6-1 7-5 5h-27l1 53 3 6 6 4 5 1 17-1 3 3 1 9-3 7-5 3-16 2-14-2-10-4-8-7-5-10-2-7-1-56-15-1-5-4-1-2v-8l5-5 2-1h15v-25l5-6z" fill="#381E44"/>
<path transform="translate(350,355)" d="m0 0h19l14 3 5 5 5 9 1 6v13l-2 8-7 9-8 6-9 5-18 3-25 1-4 3-3-1-5-11-1-9v-10l1-10 5-10 5-6 12-9z" fill="#F1943C"/>
<path transform="translate(1746,257)" d="m0 0 9 2 5 5 1 3v134l-3 6-5 4h-11l-6-4-2-4v-137l4-6 3-2z" fill="#F2943C"/>
<path transform="translate(1492,303)" d="m0 0 9 2 4 4 2 12 6-8 9-6 8-3 13-1 5 4 1 2v10l-3 5-4 2-18 3-8 4-5 6-3 9-1 55-4 6-4 2h-10l-5-3-3-4-1-4v-86l3-7 4-3z" fill="#361C42"/>
<path transform="translate(349,187)" d="m0 0 10 3 10 6 14 9 19 12 21 13 19 12 7 4 15 9 5 5 2 6v75l-1 41-2 17-3 12-7 17-4 5-4 7-9 11-10 10-13 9-19 9-23 5h-41l-15-4-10-5-11-11-5-8-6-16-16-1-16-5-12-9-6-8-5-12-1-7-1-62v-70l3-8 11-8 46-28 11-7 19-12 14-9zm-3 3-13 8-17 11-13 8-36 22-30 19-3 3-1 4v79l1 57 5 13 7 10 12 9 11 3 19 2 3 3 6 16 6 8 9 9 8 4 11 3 15 1h19l15-1 18-4 17-8 11-7 12-11 9-10 9-15 5-11 4-11 3-22v-119l-4-5-31-19-10-6-19-12-16-10-14-9-13-8-7-4z" fill="#D0C1D8"/>
<path transform="translate(345,268)" d="m0 0h11l5 3 5 6 3 7v16l-4 8-4 5-6 3h-9l-6-3-7-9-2-7v-10l2-7 6-8 3-3z" fill="#351B41"/>
<path transform="translate(399,286)" d="m0 0h8l8 5 3 4 1 3v15l-5 10-8 7-6 2-10-1-5-3-4-5-1-2v-17l5-9 7-6z" fill="#351B41"/>
<path transform="translate(293,286)" d="m0 0h9l10 5 5 6 4 10v11l-5 10-9 4-9-1-6-3-8-9-3-8v-12l4-8z" fill="#351B41"/>
</svg>
